<svg aria-hidden="true" style="position: absolute; width: 0; height: 0; overflow: hidden;" version="1.1" xmlns="http://www.w3.org/2000/svg" xmlns:xlink="http://www.w3.org/1999/xlink">
<defs>
<symbol id="logo" viewBox="0 0 32 32">
<path fill="#161616" style="fill:  #161616" d="M25.6 0h-19.2c-3.535 0-6.4 2.865-6.4 6.4v19.2c0 3.535 2.865 6.4 6.4 6.4h19.2c3.535 0 6.4-2.865 6.4-6.4v-19.2c0-3.535-2.865-6.4-6.4-6.4z"></path>
<path fill="#fff" style="fill:  #ffff" d="M13.331 23.027c0.244-1.272 0.453-2.61 0.747-3.949 0.145-0.7-0.032-0.999-0.815-0.946s-1.657 0.027-2.49 0c-0.833-0.027-0.982-0.446-0.502-1.044 2.363-2.918 4.753-5.8 7.134-8.674 0.267-0.326 0.575-0.558 1.014-0.312s0.348 0.549 0.276 0.915c-0.263 1.339-0.48 2.677-0.77 3.989-0.149 0.678 0.045 0.919 0.751 0.892 0.709-0.036 1.419-0.036 2.127 0 0.403 0 0.932-0.21 1.141 0.339s-0.231 0.781-0.453 1.106c-0.905 1.115-1.823 2.229-2.752 3.342-1.361 1.624-2.711 3.242-4.051 4.854-0.262 0.317-0.557 0.571-1.005 0.41s-0.353-0.54-0.353-0.924z"></path>
</symbol>

<symbol id="logo-violet" viewBox="0 0 32 32">
<path d="M24 0H8C3.58172 0 0 3.58172 0 8V24C0 28.4183 3.58172 32 8 32H24C28.4183 32 32 28.4183 32 24V8C32 3.58172 28.4183 0 24 0Z" fill="#ECEDFD"/>
<path d="M13.3314 23.0269C13.5759 21.7553 13.7841 20.4168 14.0783 19.0782C14.2232 18.3777 14.0466 18.0788 13.2635 18.1324C12.4804 18.1859 11.6068 18.1591 10.7739 18.1324C9.94105 18.1056 9.79167 17.6862 10.2715 17.0883C12.6343 14.1703 15.0243 11.2881 17.4053 8.41472C17.6724 8.08902 17.9802 7.85701 18.4193 8.1024C18.8583 8.3478 18.7678 8.6512 18.6954 9.01706C18.4328 10.3556 18.2156 11.6941 17.9259 13.0058C17.7765 13.684 17.9711 13.9249 18.6773 13.8982C19.386 13.8625 20.096 13.8625 20.8047 13.8982C21.2076 13.8982 21.7372 13.6885 21.9454 14.2373C22.1536 14.7861 21.7146 15.0181 21.4928 15.3438C20.5875 16.4592 19.6701 17.5731 18.7406 18.6856C17.3797 20.3097 16.0292 21.9278 14.6894 23.54C14.4268 23.8567 14.1326 24.1111 13.6845 23.9504C13.2364 23.7898 13.3314 23.4106 13.3314 23.0269Z" fill="#5255BC"/>
</symbol> 

<symbol id="filter-white" viewBox="0 0 33 32">
<path fill="none" stroke-linejoin="round" stroke-linecap="round" stroke-miterlimit="4" stroke-width="2.0870" d="M25.971 2.783h-18.551l7.42 8.774v6.066l3.71 1.855v-7.921l7.42-8.774z"></path>
</symbol>

<symbol id="filter-black" viewBox="0 0 32 32">
<path stroke-linejoin="round" stroke-linecap="round" stroke-miterlimit="4" stroke-width="3" d="M29.334 4h-26.667l10.667 12.613v8.72l5.333 2.667v-11.387l10.667-12.613z"></path>
</symbol>

<symbol id="plus-black" viewBox="0 0 32 32">
<path d="M25.143 0h-18.286c-3.787 0-6.857 3.070-6.857 6.857v18.286c0 3.787 3.070 6.857 6.857 6.857h18.286c3.787 0 6.857-3.070 6.857-6.857v-18.286c0-3.787-3.070-6.857-6.857-6.857z"></path>
<path fill="none" stroke="#fff" style="stroke: var(--color1, #fff)" stroke-linejoin="round" stroke-linecap="round" stroke-miterlimit="4" stroke-width="1.1429" d="M16 11.333v9.333"></path>
<path fill="none" stroke="#fff" style="stroke: var(--color1, #fff)" stroke-linejoin="round" stroke-linecap="round" stroke-miterlimit="4" stroke-width="1.1429" d="M11.333 16h9.333"></path>
</symbol>

<symbol id="plus-white" viewBox="0 0 32 32">
<path fill="#fff" style="fill: var(--color1, #fff)" d="M25.143 0h-18.286c-3.787 0-6.857 3.070-6.857 6.857v18.286c0 3.787 3.070 6.857 6.857 6.857h18.286c3.787 0 6.857-3.070 6.857-6.857v-18.286c0-3.787-3.070-6.857-6.857-6.857z"></path>
<path fill="none" stroke="#161616" style="stroke: var(--color2, #161616)" stroke-linejoin="round" stroke-linecap="round" stroke-miterlimit="4" stroke-width="1.1429" d="M16 11.333v9.333"></path>
<path fill="none" stroke="#161616" style="stroke: var(--color2, #161616)" stroke-linejoin="round" stroke-linecap="round" stroke-miterlimit="4" stroke-width="1.1429" d="M11.333 16h9.333"></path>
</symbol>

<symbol id="logout" viewBox="0 0 32 32">
<path fill="none" stroke="#fff" style="stroke: var(--color1, #fff)" stroke-linejoin="round" stroke-linecap="round" stroke-miterlimit="4" stroke-width="1.5" d="M11.867 10.080c0.413-4.8 2.88-6.76 8.28-6.76h0.173c5.96 0 8.347 2.387 8.347 8.347v8.693c0 5.96-2.387 8.347-8.347 8.347h-0.173c-5.36 0-7.827-1.933-8.267-6.653"></path>
<path fill="none" stroke="#fff" style="stroke: var(--color1, #fff)" stroke-linejoin="round" stroke-linecap="round" stroke-miterlimit="4" stroke-width="1.5" d="M2.667 16h17.173"></path>
<path fill="none" stroke="#fff" style="stroke: var(--color1, #fff)" stroke-linejoin="round" stroke-linecap="round" stroke-miterlimit="4" stroke-width="1.5" d="M16.867 11.533l4.467 4.467-4.467 4.467"></path>
</symbol>

<symbol id="plus" viewBox="0 0 32 32">
<path fill="none" stroke="#fff" style="stroke: var(--color1, #fff)" stroke-linejoin="round" stroke-linecap="round" stroke-miterlimit="4" stroke-width="2.2857" d="M16 6.667v18.667"></path>
<path fill="none" stroke="#fff" style="stroke: var(--color1, #fff)" stroke-linejoin="round" stroke-linecap="round" stroke-miterlimit="4" stroke-width="2.2857" d="M6.666 16h18.667"></path>
</symbol>

<symbol id="bell-green" viewBox="0 0 32 32">
<path fill="none" stroke="#bedbb0" style="stroke: var(--color1, #bedbb0)" stroke-linejoin="round" stroke-linecap="round" stroke-miterlimit="4" stroke-width="3" d="M12.472 28c0.94 0.83 2.175 1.333 3.528 1.333s2.588-0.504 3.528-1.333M24 10.667c0-2.122-0.843-4.157-2.343-5.657s-3.535-2.343-5.657-2.343-4.157 0.843-5.657 2.343c-1.5 1.5-2.343 3.535-2.343 5.657 0 4.12-1.039 6.941-2.2 8.807-0.979 1.574-1.469 2.361-1.451 2.58 0.020 0.243 0.071 0.336 0.267 0.481 0.177 0.131 0.974 0.131 2.569 0.131h17.63c1.595 0 2.392 0 2.569-0.131 0.196-0.145 0.247-0.238 0.267-0.481 0.018-0.22-0.472-1.006-1.451-2.58-1.161-1.866-2.2-4.687-2.2-8.807z"></path>
</symbol>

<symbol id="bell-violet" viewBox="0 0 32 32">
<path fill="none" stroke="#5255bc" style="stroke: var(--color1, #5255bc)" stroke-linejoin="round" stroke-linecap="round" stroke-miterlimit="4" stroke-width="3" d="M12.472 28c0.94 0.83 2.175 1.333 3.528 1.333s2.588-0.504 3.528-1.333M24 10.667c0-2.122-0.843-4.157-2.343-5.657s-3.535-2.343-5.657-2.343-4.157 0.843-5.657 2.343c-1.5 1.5-2.343 3.535-2.343 5.657 0 4.12-1.039 6.941-2.2 8.807-0.979 1.574-1.469 2.361-1.451 2.581 0.020 0.243 0.071 0.336 0.267 0.481 0.177 0.131 0.974 0.131 2.569 0.131h17.63c1.595 0 2.392 0 2.569-0.131 0.196-0.145 0.247-0.238 0.267-0.481 0.018-0.22-0.472-1.007-1.451-2.581-1.161-1.866-2.2-4.687-2.2-8.807z"></path>
</symbol>

<symbol id="bell-violet" viewBox="0 0 32 32">
<path fill="none" stroke="#5255bc" style="stroke: var(--color1, #5255bc)" stroke-linejoin="round" stroke-linecap="round" stroke-miterlimit="4" stroke-width="3" d="M12.472 28c0.94 0.83 2.175 1.333 3.528 1.333s2.588-0.504 3.528-1.333M24 10.667c0-2.122-0.843-4.157-2.343-5.657s-3.535-2.343-5.657-2.343-4.157 0.843-5.657 2.343c-1.5 1.5-2.343 3.535-2.343 5.657 0 4.12-1.039 6.941-2.2 8.807-0.979 1.574-1.469 2.361-1.451 2.581 0.020 0.243 0.071 0.336 0.267 0.481 0.177 0.131 0.974 0.131 2.569 0.131h17.63c1.595 0 2.392 0 2.569-0.131 0.196-0.145 0.247-0.238 0.267-0.481 0.018-0.22-0.472-1.007-1.451-2.581-1.161-1.866-2.2-4.687-2.2-8.807z"></path>
</symbol>

<symbol id="move-violet" viewBox="0 0 32 32">
<path fill="none" stroke="#5255bc" style="stroke:  #5255bc" stroke-linejoin="round" stroke-linecap="round" stroke-miterlimit="4" stroke-width="2.6" d="M4.45 9.333c2.305-3.985 6.614-6.667 11.55-6.667 7.364 0 13.333 5.97 13.333 13.333s-5.97 13.333-13.333 13.333c-4.935 0-9.244-2.681-11.55-6.667"></path>
<path fill="none" stroke="#5255bc" style="stroke:  #5255bc" stroke-linejoin="round" stroke-linecap="round" stroke-miterlimit="4" stroke-width="2.6" d="M16 21.333l5.333-5.333-5.333-5.333"></path>
<path fill="none" stroke="#5255bc" style="stroke:  #5255bc" stroke-linejoin="round" stroke-linecap="round" stroke-miterlimit="4" stroke-width="2.6" d="M2.667 16h18.667"></path>
</symbol>

<symbol id="move-green" viewBox="0 0 32 32">
<path fill="none" stroke="#bedbb0" style="stroke:  #bedbb0" stroke-linejoin="round" stroke-linecap="round" stroke-miterlimit="4" stroke-width="2.6" d="M4.45 9.333c2.305-3.985 6.614-6.667 11.55-6.667 7.364 0 13.333 5.97 13.333 13.333s-5.97 13.333-13.333 13.333c-4.935 0-9.244-2.681-11.55-6.667"></path>
<path fill="none" stroke="#bedbb0" style="stroke:  #bedbb0" stroke-linejoin="round" stroke-linecap="round" stroke-miterlimit="4" stroke-width="2.6" d="M16 21.333l5.333-5.333-5.333-5.333"></path>
<path fill="none" stroke="#bedbb0" style="stroke:  #bedbb0" stroke-linejoin="round" stroke-linecap="round" stroke-miterlimit="4" stroke-width="2.6" d="M2.667 16h18.667"></path>
</symbol>

<symbol id="move-black" viewBox="0 0 32 32">
<path stroke-linejoin="round" stroke-linecap="round" stroke-miterlimit="4" stroke-width="2.6" d="M4.45 9.333c2.305-3.985 6.614-6.667 11.55-6.667 7.364 0 13.333 5.97 13.333 13.333s-5.97 13.333-13.333 13.333c-4.935 0-9.244-2.681-11.55-6.667"></path>
<path stroke-linejoin="round" stroke-linecap="round" stroke-miterlimit="4" stroke-width="2.6" d="M16 21.333l5.333-5.333-5.333-5.333"></path>
<path stroke-linejoin="round" stroke-linecap="round" stroke-miterlimit="4" stroke-width="2.6" d="M2.667 16h18.667"></path>
</symbol>

<symbol id="pencil" viewBox="0 0 32 32">
<path stroke-linejoin="round" stroke-linecap="round" stroke-miterlimit="4" stroke-width="2.6" d="M3.333 28.667l7.399-2.846c0.473-0.182 0.71-0.273 0.931-0.392 0.197-0.106 0.384-0.227 0.56-0.364 0.199-0.154 0.378-0.333 0.736-0.692l15.040-15.040c1.473-1.473 1.473-3.861 0-5.333s-3.861-1.473-5.333 0l-15.040 15.040c-0.359 0.359-0.538 0.538-0.692 0.736-0.137 0.176-0.259 0.364-0.364 0.56-0.119 0.221-0.21 0.458-0.392 0.931l-2.846 7.399zM3.333 28.667l2.744-7.135c0.196-0.511 0.295-0.766 0.463-0.883 0.147-0.102 0.329-0.141 0.505-0.107 0.201 0.038 0.395 0.232 0.782 0.619l3.012 3.012c0.387 0.387 0.58 0.58 0.619 0.782 0.034 0.176-0.005 0.358-0.107 0.505-0.117 0.168-0.372 0.267-0.883 0.463l-7.135 2.744z"></path>
</symbol>

<symbol id="trash" viewBox="0 0 32 32">
<path stroke-linejoin="round" stroke-linecap="round" stroke-miterlimit="4" stroke-width="2.6" d="M12 4h8"></path>
<path stroke-linejoin="round" stroke-linecap="round" stroke-miterlimit="4" stroke-width="2.6" d="M4 8h24"></path>
<path stroke-linejoin="round" stroke-linecap="round" stroke-miterlimit="4" stroke-width="2.6" d="M6.667 8l0.801 12.018c0.149 2.231 0.223 3.347 0.588 4.243 0.662 1.627 2.004 2.883 3.672 3.435 0.919 0.304 2.037 0.304 4.273 0.304v0c2.236 0 3.354 0 4.273-0.304 1.668-0.552 3.010-1.808 3.672-3.435 0.365-0.896 0.439-2.012 0.588-4.243l0.801-12.018"></path>
</symbol>

<symbol id="x-close" viewBox="0 0 32 32">
<path fill="none" stroke="#fff" style="stroke: var(--color1, #fff)" stroke-linejoin="round" stroke-linecap="round" stroke-miterlimit="4" stroke-width="2.6667" d="M24 8l-16 16"></path>
<path fill="none" stroke="#fff" style="stroke: var(--color1, #fff)" stroke-linejoin="round" stroke-linecap="round" stroke-miterlimit="4" stroke-width="2.6667" d="M8 8l16 16"></path>
</symbol>

<symbol id="x-close-black" viewBox="0 0 32 32">
<path stroke-linejoin="round" stroke-linecap="round" stroke-miterlimit="4" stroke-width="2.6667" d="M24 8l-16 16"></path>
<path stroke-linejoin="round" stroke-linecap="round" stroke-miterlimit="4" stroke-width="2.6667" d="M8 8l16 16"></path>
</symbol>

</defs>
</svg>